<?xml version="1.0" encoding="UTF-8" standalone="no"?><!DOCTYPE svg PUBLIC "-//W3C//DTD SVG 1.1//EN" "http://www.w3.org/Graphics/SVG/1.1/DTD/svg11.dtd"><!-- Generated by graphviz version 2.40.1 (20161225.0304)
 --><!-- Title: Tree Pages: 1 --><svg xmlns="http://www.w3.org/2000/svg" xmlns:xlink="http://www.w3.org/1999/xlink" width="998pt" height="604pt" viewBox="0.00 0.00 997.54 603.60">
<g id="graph0" class="graph" transform="scale(1 1) rotate(0) translate(4 599.6)">
<title>Tree</title>
<polygon fill="#ffffff" stroke="transparent" points="-4,4 -4,-599.6 993.5356,-599.6 993.5356,4 -4,4"/>
<!-- 0 -->
<g id="node1" class="node">
<title>0</title>
<polygon fill="#fcf1e9" stroke="#000000" points="479.3044,-595.6 374.2312,-595.6 374.2312,-503.6 479.3044,-503.6 479.3044,-595.6"/>
<text text-anchor="middle" x="426.7678" y="-579" font-family="Times,serif" font-size="14.00" fill="#000000">renda &lt;= 1.5</text>
<text text-anchor="middle" x="426.7678" y="-562.2" font-family="Times,serif" font-size="14.00" fill="#000000">entropy = 1.531</text>
<text text-anchor="middle" x="426.7678" y="-545.4" font-family="Times,serif" font-size="14.00" fill="#000000">samples = 14</text>
<text text-anchor="middle" x="426.7678" y="-528.6" font-family="Times,serif" font-size="14.00" fill="#000000">value = [6, 5, 3]</text>
<text text-anchor="middle" x="426.7678" y="-511.8" font-family="Times,serif" font-size="14.00" fill="#000000">class = alto</text>
</g>
<!-- 1 -->
<g id="node2" class="node">
<title>1</title>
<polygon fill="#efb388" stroke="#000000" points="291.3044,-467.6 186.2312,-467.6 186.2312,-375.6 291.3044,-375.6 291.3044,-467.6"/>
<text text-anchor="middle" x="238.7678" y="-451" font-family="Times,serif" font-size="14.00" fill="#000000">renda &lt;= 0.5</text>
<text text-anchor="middle" x="238.7678" y="-434.2" font-family="Times,serif" font-size="14.00" fill="#000000">entropy = 0.863</text>
<text text-anchor="middle" x="238.7678" y="-417.4" font-family="Times,serif" font-size="14.00" fill="#000000">samples = 7</text>
<text text-anchor="middle" x="238.7678" y="-400.6" font-family="Times,serif" font-size="14.00" fill="#000000">value = [5, 0, 2]</text>
<text text-anchor="middle" x="238.7678" y="-383.8" font-family="Times,serif" font-size="14.00" fill="#000000">class = alto</text>
</g>
<!-- 0&#45;&gt;1 -->
<g id="edge1" class="edge">
<title>0-&gt;1</title>
<path fill="none" stroke="#000000" d="M374.1493,-513.7747C351.0228,-498.0289 323.7211,-479.4405 299.7151,-463.096"/>
<polygon fill="#000000" stroke="#000000" points="301.6094,-460.1515 291.3736,-457.4167 297.6698,-465.9377 301.6094,-460.1515"/>
<text text-anchor="middle" x="296.0371" y="-477.7779" font-family="Times,serif" font-size="14.00" fill="#000000">True</text>
</g>
<!-- 8 -->
<g id="node9" class="node">
<title>8</title>
<polygon fill="#7beeab" stroke="#000000" points="675.8518,-467.6 561.6838,-467.6 561.6838,-375.6 675.8518,-375.6 675.8518,-467.6"/>
<text text-anchor="middle" x="618.7678" y="-451" font-family="Times,serif" font-size="14.00" fill="#000000">historia &lt;= 1.5</text>
<text text-anchor="middle" x="618.7678" y="-434.2" font-family="Times,serif" font-size="14.00" fill="#000000">entropy = 1.149</text>
<text text-anchor="middle" x="618.7678" y="-417.4" font-family="Times,serif" font-size="14.00" fill="#000000">samples = 7</text>
<text text-anchor="middle" x="618.7678" y="-400.6" font-family="Times,serif" font-size="14.00" fill="#000000">value = [1, 5, 1]</text>
<text text-anchor="middle" x="618.7678" y="-383.8" font-family="Times,serif" font-size="14.00" fill="#000000">class = moderado</text>
</g>
<!-- 0&#45;&gt;8 -->
<g id="edge8" class="edge">
<title>0-&gt;8</title>
<path fill="none" stroke="#000000" d="M479.4866,-514.4541C502.2277,-499.2934 529.0671,-481.4005 553.0851,-465.3885"/>
<polygon fill="#000000" stroke="#000000" points="555.0724,-468.2701 561.4515,-459.8109 551.1895,-462.4457 555.0724,-468.2701"/>
<text text-anchor="middle" x="556.5486" y="-480.1254" font-family="Times,serif" font-size="14.00" fill="#000000">False</text>
</g>
<!-- 2 -->
<g id="node3" class="node">
<title>2</title>
<polygon fill="#e58139" stroke="#000000" points="105.3044,-75.3003 .2312,-75.3003 .2312,.1003 105.3044,.1003 105.3044,-75.3003"/>
<text text-anchor="middle" x="52.7678" y="-58.6" font-family="Times,serif" font-size="14.00" fill="#000000">entropy = 0.0</text>
<text text-anchor="middle" x="52.7678" y="-41.8" font-family="Times,serif" font-size="14.00" fill="#000000">samples = 3</text>
<text text-anchor="middle" x="52.7678" y="-25" font-family="Times,serif" font-size="14.00" fill="#000000">value = [3, 0, 0]</text>
<text text-anchor="middle" x="52.7678" y="-8.2" font-family="Times,serif" font-size="14.00" fill="#000000">class = alto</text>
</g>
<!-- 1&#45;&gt;2 -->
<g id="edge2" class="edge">
<title>1-&gt;2</title>
<path fill="none" stroke="#000000" d="M203.7815,-375.3279C189.7182,-356.728 176.7678,-339.6 176.7678,-339.6 176.7678,-339.6 106.9475,-169.5539 72.0901,-84.6593"/>
<polygon fill="#000000" stroke="#000000" points="75.2578,-83.1591 68.2218,-75.2379 68.7824,-85.8179 75.2578,-83.1591"/>
</g>
<!-- 3 -->
<g id="node4" class="node">
<title>3</title>
<polygon fill="#ffffff" stroke="#000000" points="291.3044,-339.6 186.2312,-339.6 186.2312,-247.6 291.3044,-247.6 291.3044,-339.6"/>
<text text-anchor="middle" x="238.7678" y="-323" font-family="Times,serif" font-size="14.00" fill="#000000">historia &lt;= 0.5</text>
<text text-anchor="middle" x="238.7678" y="-306.2" font-family="Times,serif" font-size="14.00" fill="#000000">entropy = 1.0</text>
<text text-anchor="middle" x="238.7678" y="-289.4" font-family="Times,serif" font-size="14.00" fill="#000000">samples = 4</text>
<text text-anchor="middle" x="238.7678" y="-272.6" font-family="Times,serif" font-size="14.00" fill="#000000">value = [2, 0, 2]</text>
<text text-anchor="middle" x="238.7678" y="-255.8" font-family="Times,serif" font-size="14.00" fill="#000000">class = alto</text>
</g>
<!-- 1&#45;&gt;3 -->
<g id="edge3" class="edge">
<title>1-&gt;3</title>
<path fill="none" stroke="#000000" d="M238.7678,-375.3891C238.7678,-367.1417 238.7678,-358.4661 238.7678,-349.9724"/>
<polygon fill="#000000" stroke="#000000" points="242.2679,-349.7431 238.7678,-339.7431 235.2679,-349.7431 242.2679,-349.7431"/>
</g>
<!-- 4 -->
<g id="node5" class="node">
<title>4</title>
<polygon fill="#8139e5" stroke="#000000" points="229.3044,-75.3003 124.2312,-75.3003 124.2312,.1003 229.3044,.1003 229.3044,-75.3003"/>
<text text-anchor="middle" x="176.7678" y="-58.6" font-family="Times,serif" font-size="14.00" fill="#000000">entropy = 0.0</text>
<text text-anchor="middle" x="176.7678" y="-41.8" font-family="Times,serif" font-size="14.00" fill="#000000">samples = 1</text>
<text text-anchor="middle" x="176.7678" y="-25" font-family="Times,serif" font-size="14.00" fill="#000000">value = [0, 0, 1]</text>
<text text-anchor="middle" x="176.7678" y="-8.2" font-family="Times,serif" font-size="14.00" fill="#000000">class = baixo</text>
</g>
<!-- 3&#45;&gt;4 -->
<g id="edge4" class="edge">
<title>3-&gt;4</title>
<path fill="none" stroke="#000000" d="M227.6118,-247.5367C216.5035,-201.6702 199.5306,-131.5884 188.2941,-85.1926"/>
<polygon fill="#000000" stroke="#000000" points="191.6735,-84.2764 185.9179,-75.3812 184.8702,-85.9241 191.6735,-84.2764"/>
</g>
<!-- 5 -->
<g id="node6" class="node">
<title>5</title>
<polygon fill="#f2c09c" stroke="#000000" points="353.3044,-211.6 248.2312,-211.6 248.2312,-119.6 353.3044,-119.6 353.3044,-211.6"/>
<text text-anchor="middle" x="300.7678" y="-195" font-family="Times,serif" font-size="14.00" fill="#000000">divida &lt;= 0.5</text>
<text text-anchor="middle" x="300.7678" y="-178.2" font-family="Times,serif" font-size="14.00" fill="#000000">entropy = 0.918</text>
<text text-anchor="middle" x="300.7678" y="-161.4" font-family="Times,serif" font-size="14.00" fill="#000000">samples = 3</text>
<text text-anchor="middle" x="300.7678" y="-144.6" font-family="Times,serif" font-size="14.00" fill="#000000">value = [2, 0, 1]</text>
<text text-anchor="middle" x="300.7678" y="-127.8" font-family="Times,serif" font-size="14.00" fill="#000000">class = alto</text>
</g>
<!-- 3&#45;&gt;5 -->
<g id="edge5" class="edge">
<title>3-&gt;5</title>
<path fill="none" stroke="#000000" d="M261.1512,-247.3891C265.3217,-238.7791 269.7181,-229.7026 274.0044,-220.8535"/>
<polygon fill="#000000" stroke="#000000" points="277.2078,-222.2687 278.4172,-211.7431 270.908,-219.2172 277.2078,-222.2687"/>
</g>
<!-- 6 -->
<g id="node7" class="node">
<title>6</title>
<polygon fill="#e58139" stroke="#000000" points="353.3044,-75.3003 248.2312,-75.3003 248.2312,.1003 353.3044,.1003 353.3044,-75.3003"/>
<text text-anchor="middle" x="300.7678" y="-58.6" font-family="Times,serif" font-size="14.00" fill="#000000">entropy = 0.0</text>
<text text-anchor="middle" x="300.7678" y="-41.8" font-family="Times,serif" font-size="14.00" fill="#000000">samples = 2</text>
<text text-anchor="middle" x="300.7678" y="-25" font-family="Times,serif" font-size="14.00" fill="#000000">value = [2, 0, 0]</text>
<text text-anchor="middle" x="300.7678" y="-8.2" font-family="Times,serif" font-size="14.00" fill="#000000">class = alto</text>
</g>
<!-- 5&#45;&gt;6 -->
<g id="edge6" class="edge">
<title>5-&gt;6</title>
<path fill="none" stroke="#000000" d="M300.7678,-119.3891C300.7678,-108.4272 300.7678,-96.709 300.7678,-85.6667"/>
<polygon fill="#000000" stroke="#000000" points="304.2679,-85.3335 300.7678,-75.3335 297.2679,-85.3335 304.2679,-85.3335"/>
</g>
<!-- 7 -->
<g id="node8" class="node">
<title>7</title>
<polygon fill="#8139e5" stroke="#000000" points="477.3044,-75.3003 372.2312,-75.3003 372.2312,.1003 477.3044,.1003 477.3044,-75.3003"/>
<text text-anchor="middle" x="424.7678" y="-58.6" font-family="Times,serif" font-size="14.00" fill="#000000">entropy = 0.0</text>
<text text-anchor="middle" x="424.7678" y="-41.8" font-family="Times,serif" font-size="14.00" fill="#000000">samples = 1</text>
<text text-anchor="middle" x="424.7678" y="-25" font-family="Times,serif" font-size="14.00" fill="#000000">value = [0, 0, 1]</text>
<text text-anchor="middle" x="424.7678" y="-8.2" font-family="Times,serif" font-size="14.00" fill="#000000">class = baixo</text>
</g>
<!-- 5&#45;&gt;7 -->
<g id="edge7" class="edge">
<title>5-&gt;7</title>
<path fill="none" stroke="#000000" d="M345.5346,-119.3891C357.1392,-107.4101 369.6188,-94.528 381.1628,-82.6116"/>
<polygon fill="#000000" stroke="#000000" points="383.7693,-84.9512 388.2135,-75.3335 378.7416,-80.0806 383.7693,-84.9512"/>
</g>
<!-- 9 -->
<g id="node10" class="node">
<title>9</title>
<polygon fill="#61ea9a" stroke="#000000" points="675.8518,-339.6 561.6838,-339.6 561.6838,-247.6 675.8518,-247.6 675.8518,-339.6"/>
<text text-anchor="middle" x="618.7678" y="-323" font-family="Times,serif" font-size="14.00" fill="#000000">historia &lt;= 0.5</text>
<text text-anchor="middle" x="618.7678" y="-306.2" font-family="Times,serif" font-size="14.00" fill="#000000">entropy = 0.65</text>
<text text-anchor="middle" x="618.7678" y="-289.4" font-family="Times,serif" font-size="14.00" fill="#000000">samples = 6</text>
<text text-anchor="middle" x="618.7678" y="-272.6" font-family="Times,serif" font-size="14.00" fill="#000000">value = [1, 5, 0]</text>
<text text-anchor="middle" x="618.7678" y="-255.8" font-family="Times,serif" font-size="14.00" fill="#000000">class = moderado</text>
</g>
<!-- 8&#45;&gt;9 -->
<g id="edge9" class="edge">
<title>8-&gt;9</title>
<path fill="none" stroke="#000000" d="M618.7678,-375.3891C618.7678,-367.1417 618.7678,-358.4661 618.7678,-349.9724"/>
<polygon fill="#000000" stroke="#000000" points="622.2679,-349.7431 618.7678,-339.7431 615.2679,-349.7431 622.2679,-349.7431"/>
</g>
<!-- 14 -->
<g id="node15" class="node">
<title>14</title>
<polygon fill="#8139e5" stroke="#000000" points="989.3044,-75.3003 884.2312,-75.3003 884.2312,.1003 989.3044,.1003 989.3044,-75.3003"/>
<text text-anchor="middle" x="936.7678" y="-58.6" font-family="Times,serif" font-size="14.00" fill="#000000">entropy = 0.0</text>
<text text-anchor="middle" x="936.7678" y="-41.8" font-family="Times,serif" font-size="14.00" fill="#000000">samples = 1</text>
<text text-anchor="middle" x="936.7678" y="-25" font-family="Times,serif" font-size="14.00" fill="#000000">value = [0, 0, 1]</text>
<text text-anchor="middle" x="936.7678" y="-8.2" font-family="Times,serif" font-size="14.00" fill="#000000">class = baixo</text>
</g>
<!-- 8&#45;&gt;14 -->
<g id="edge14" class="edge">
<title>8-&gt;14</title>
<path fill="none" stroke="#000000" d="M657.126,-375.2806C718.489,-301.1819 838.0087,-156.8562 898.9978,-83.2091"/>
<polygon fill="#000000" stroke="#000000" points="901.7433,-85.3812 905.4258,-75.4469 896.352,-80.9165 901.7433,-85.3812"/>
</g>
<!-- 10 -->
<g id="node11" class="node">
<title>10</title>
<polygon fill="#39e581" stroke="#000000" points="609.8518,-75.3003 495.6838,-75.3003 495.6838,.1003 609.8518,.1003 609.8518,-75.3003"/>
<text text-anchor="middle" x="552.7678" y="-58.6" font-family="Times,serif" font-size="14.00" fill="#000000">entropy = 0.0</text>
<text text-anchor="middle" x="552.7678" y="-41.8" font-family="Times,serif" font-size="14.00" fill="#000000">samples = 3</text>
<text text-anchor="middle" x="552.7678" y="-25" font-family="Times,serif" font-size="14.00" fill="#000000">value = [0, 3, 0]</text>
<text text-anchor="middle" x="552.7678" y="-8.2" font-family="Times,serif" font-size="14.00" fill="#000000">class = moderado</text>
</g>
<!-- 9&#45;&gt;10 -->
<g id="edge10" class="edge">
<title>9-&gt;10</title>
<path fill="none" stroke="#000000" d="M606.8921,-247.5367C595.0671,-201.6702 576.9992,-131.5884 565.0378,-85.1926"/>
<polygon fill="#000000" stroke="#000000" points="568.394,-84.1908 562.5083,-75.3812 561.6157,-85.9384 568.394,-84.1908"/>
</g>
<!-- 11 -->
<g id="node12" class="node">
<title>11</title>
<polygon fill="#9cf2c0" stroke="#000000" points="741.8518,-211.6 627.6838,-211.6 627.6838,-119.6 741.8518,-119.6 741.8518,-211.6"/>
<text text-anchor="middle" x="684.7678" y="-195" font-family="Times,serif" font-size="14.00" fill="#000000">garantias &lt;= 0.5</text>
<text text-anchor="middle" x="684.7678" y="-178.2" font-family="Times,serif" font-size="14.00" fill="#000000">entropy = 0.918</text>
<text text-anchor="middle" x="684.7678" y="-161.4" font-family="Times,serif" font-size="14.00" fill="#000000">samples = 3</text>
<text text-anchor="middle" x="684.7678" y="-144.6" font-family="Times,serif" font-size="14.00" fill="#000000">value = [1, 2, 0]</text>
<text text-anchor="middle" x="684.7678" y="-127.8" font-family="Times,serif" font-size="14.00" fill="#000000">class = moderado</text>
</g>
<!-- 9&#45;&gt;11 -->
<g id="edge11" class="edge">
<title>9-&gt;11</title>
<path fill="none" stroke="#000000" d="M642.5953,-247.3891C647.0348,-238.7791 651.7149,-229.7026 656.2777,-220.8535"/>
<polygon fill="#000000" stroke="#000000" points="659.5031,-222.2352 660.9753,-211.7431 653.2815,-219.0271 659.5031,-222.2352"/>
</g>
<!-- 12 -->
<g id="node13" class="node">
<title>12</title>
<polygon fill="#39e581" stroke="#000000" points="741.8518,-75.3003 627.6838,-75.3003 627.6838,.1003 741.8518,.1003 741.8518,-75.3003"/>
<text text-anchor="middle" x="684.7678" y="-58.6" font-family="Times,serif" font-size="14.00" fill="#000000">entropy = 0.0</text>
<text text-anchor="middle" x="684.7678" y="-41.8" font-family="Times,serif" font-size="14.00" fill="#000000">samples = 1</text>
<text text-anchor="middle" x="684.7678" y="-25" font-family="Times,serif" font-size="14.00" fill="#000000">value = [0, 1, 0]</text>
<text text-anchor="middle" x="684.7678" y="-8.2" font-family="Times,serif" font-size="14.00" fill="#000000">class = moderado</text>
</g>
<!-- 11&#45;&gt;12 -->
<g id="edge12" class="edge">
<title>11-&gt;12</title>
<path fill="none" stroke="#000000" d="M684.7678,-119.3891C684.7678,-108.4272 684.7678,-96.709 684.7678,-85.6667"/>
<polygon fill="#000000" stroke="#000000" points="688.2679,-85.3335 684.7678,-75.3335 681.2679,-85.3335 688.2679,-85.3335"/>
</g>
<!-- 13 -->
<g id="node14" class="node">
<title>13</title>
<polygon fill="#ffffff" stroke="#000000" points="865.3044,-75.3003 760.2312,-75.3003 760.2312,.1003 865.3044,.1003 865.3044,-75.3003"/>
<text text-anchor="middle" x="812.7678" y="-58.6" font-family="Times,serif" font-size="14.00" fill="#000000">entropy = 1.0</text>
<text text-anchor="middle" x="812.7678" y="-41.8" font-family="Times,serif" font-size="14.00" fill="#000000">samples = 2</text>
<text text-anchor="middle" x="812.7678" y="-25" font-family="Times,serif" font-size="14.00" fill="#000000">value = [1, 1, 0]</text>
<text text-anchor="middle" x="812.7678" y="-8.2" font-family="Times,serif" font-size="14.00" fill="#000000">class = alto</text>
</g>
<!-- 11&#45;&gt;13 -->
<g id="edge13" class="edge">
<title>11-&gt;13</title>
<path fill="none" stroke="#000000" d="M730.9787,-119.3891C742.9577,-107.4101 755.8398,-94.528 767.7562,-82.6116"/>
<polygon fill="#000000" stroke="#000000" points="770.4381,-84.8795 775.0343,-75.3335 765.4883,-79.9297 770.4381,-84.8795"/>
</g>
</g>
</svg>